<?xml version="1.0" encoding="utf-8"?><svg version="1.1" id="Layer_1" xmlns="http://www.w3.org/2000/svg" xmlns:xlink="http://www.w3.org/1999/xlink" x="0px" y="0px" viewBox="0 0 468 888" enable-background="new 0 0 468 888" xml:space="preserve">
<g><path fill="#F99479" d="M2,811.71c2.47-3.69,5.72-5.35,10.34-5.04c5.4,0.37,10.85,0.07,16.28,0.05c136.59,0,273.19,0,409.78,0c5.59,0.01,11.19-0.02,16.78,0.05c6.36,0.08,9.79,3.38,9.81,9.62c0.06,19.27-0.06,38.54,0.08,57.81c0.03,4.73-2.38,7.53-5.99,9.81c-152.36,0-304.72,0-457.07,0C2,859.86,2,835.78,2,811.71z"/><path fill="#F99479" d="M28.61,81.86c-5.43-0.01-10.87-0.31-16.28,0.06C7.72,82.23,4.47,80.56,2,76.87c0-22.45,0-44.9,0-67.34c2.47-3.7,5.76-5.05,10.35-5.04C159.48,4.6,306.6,4.58,453.72,4.58c8.32,0,11.28,2.93,11.29,11.16c0.01,18.47,0.02,36.94,0,55.41c-0.01,7.55-3.15,10.64-10.79,10.67c-5.27,0.02-10.54,0.02-15.82,0.04C301.8,81.86,165.21,81.86,28.61,81.86z"/><path fill="#FEE8D5" d="M47.47,783.84c-3.23-13.88-7.27-27.63-9.48-41.66c-2.35-14.93-1.68-30.06,0.28-45.18c3.27-25.22,10.97-48.95,22.05-71.69c9.76-20.03,21.51-38.82,35.89-55.85c8.37-9.91,16.5-20.25,26.12-28.83c15.29-13.63,31.64-26.07,47.74-38.77c13.45-10.6,26.49-21.59,36.3-35.81c11.26-16.34,11.21-26.6,0.34-43.14c-9.76-14.87-22.29-27.19-35.66-38.7c-10.45-9-21.14-17.71-31.71-26.56c-9.8-8.21-20.41-15.64-29.19-24.83c-16.82-17.6-31.91-36.81-43.05-58.61c-7.01-13.71-13.21-27.92-18.69-42.32c-5.97-15.69-8.78-32.24-9.8-49.03c-0.45-7.38-1.16-14.79-0.89-22.16c0.69-18.25,3.29-36.23,9.44-53.55c0.27-0.75,0.22-1.62,0.32-2.43c1.15-0.04,2.3-0.11,3.45-0.11c122.05-0.01,244.1-0.01,366.15,0c1.15,0,2.3,0.08,3.45,0.13c2.05,11.61,4.93,23.14,5.92,34.84c1.2,14.17,1.65,28.52,0.82,42.7c-0.74,12.52-2.98,25.07-5.86,37.3c-2.66,11.29-6.56,22.37-10.79,33.2c-6.49,16.62-15.5,31.99-25.86,46.48c-14.47,20.24-30.88,38.57-51.05,53.56c-20.96,15.57-41.54,31.76-59.25,51.13c-6.18,6.75-11.96,13.98-17.07,21.57c-9.1,13.51-7.25,26.92,1.68,39.99c8.82,12.91,19.89,23.58,31.93,33.37c18.71,15.21,37.75,30.04,55.96,45.83c22.92,19.87,40.94,43.81,55.52,70.42c10.26,18.73,17.75,38.51,22.49,59.28c4.73,20.76,7.06,41.97,5.09,63.13c-1.48,15.9-5.6,31.55-8.54,47.3c-2.42-0.28-4.84-0.8-7.26-0.8c-120.13-0.04-240.25-0.03-360.38-0.04C51.75,783.97,49.61,783.88,47.47,783.84z"/><path fill="#E5886F" d="M420.53,104.74c-1.15-0.04-2.3-0.13-3.45-0.13c-122.05-0.01-244.1-0.01-366.15,0c-1.15,0-2.3,0.07-3.45,0.11C35.81,104.16,29.08,96,28.61,81.86c136.59,0,273.19,0,409.78,0C437.61,95.05,433.22,101.19,420.53,104.74z"/><path fill="#E5886F" d="M47.47,783.84c2.14,0.05,4.28,0.13,6.42,0.13c120.13,0.01,240.25,0,360.38,0.04c2.42,0,4.84,0.52,7.26,0.8c10.3,1.19,16.27,8.95,16.87,21.91c-136.59,0-273.19,0-409.78,0c-0.56-7.1,1-13.67,6.97-17.9C39.01,786.4,43.47,785.45,47.47,783.84z"/></g></svg>
