<svg
  xmlns="http://www.w3.org/2000/svg"
  width="15"
  height="15"
  viewBox="0 0 15 15"
  fill="#5B6770"
>
  <g>
    <clipPath id="clip">
      <rect width="15" height="15" />
    </clipPath>
    <path
      d="M8.931,0.179C9.166,0.257 9.28,0.416 9.312,0.666C9.494,2.088 9.687,3.508 9.877,4.929C9.92,5.249 9.97,5.568 10.005,5.889C10.016,5.985 10.059,6.039 10.13,6.094C11.429,7.093 12.726,8.093 14.024,9.093C14.137,9.18 14.253,9.264 14.362,9.355C14.557,9.52 14.599,9.732 14.472,9.954C14.025,10.736 13.576,11.517 13.122,12.295C12.98,12.539 12.761,12.599 12.484,12.486C10.863,11.82 9.242,11.155 7.622,10.486C7.517,10.443 7.431,10.446 7.327,10.489C5.711,11.156 4.095,11.819 2.478,12.482C2.173,12.608 1.97,12.54 1.807,12.257C1.375,11.51 0.944,10.763 0.514,10.015C0.34,9.713 0.381,9.516 0.66,9.3C2.041,8.237 3.421,7.173 4.804,6.113C4.894,6.044 4.94,5.972 4.954,5.86C5.069,4.965 5.19,4.071 5.309,3.178C5.424,2.312 5.539,1.446 5.654,0.58C5.681,0.374 5.821,0.262 5.994,0.179C6.973,0.179 7.952,0.179 8.931,0.179ZM5.651,7.472C5.648,8.476 6.458,9.296 7.461,9.305C8.469,9.314 9.297,8.496 9.302,7.488C9.307,6.48 8.486,5.655 7.477,5.655C6.474,5.655 5.655,6.469 5.651,7.472Z"
    />
    <path
      d="M7.477,14.781C6.88,14.778 6.292,14.707 5.715,14.556C5.507,14.502 5.377,14.35 5.364,14.158C5.349,13.958 5.441,13.771 5.62,13.709C5.726,13.671 5.857,13.658 5.965,13.684C6.973,13.926 7.978,13.927 8.985,13.681C9.276,13.61 9.526,13.755 9.584,14.016C9.64,14.273 9.484,14.499 9.198,14.569C8.632,14.708 8.059,14.779 7.477,14.781Z"
    />
    <path
      d="M0.451,5.54C0.484,5.427 0.525,5.258 0.582,5.093C0.93,4.088 1.472,3.201 2.211,2.436C2.398,2.242 2.675,2.229 2.862,2.398C3.052,2.571 3.065,2.855 2.874,3.059C2.457,3.504 2.081,3.982 1.818,4.533C1.647,4.89 1.515,5.266 1.372,5.636C1.318,5.775 1.27,5.912 1.131,5.991C0.821,6.166 0.453,5.954 0.451,5.54Z"
    />
    <path
      d="M12.421,2.251C12.525,2.309 12.65,2.347 12.73,2.429C13.57,3.291 14.153,4.304 14.485,5.46C14.555,5.706 14.431,5.946 14.203,6.026C13.967,6.111 13.725,6.003 13.626,5.754C13.5,5.438 13.4,5.11 13.264,4.799C13.008,4.212 12.651,3.688 12.219,3.216C12.155,3.146 12.087,3.079 12.031,3.002C11.921,2.851 11.91,2.684 11.996,2.519C12.081,2.359 12.222,2.283 12.421,2.251Z"
    />
    <path
      d="M11.079,3.54C11.234,3.538 11.35,3.611 11.452,3.72C12.043,4.35 12.468,5.075 12.715,5.904C12.802,6.197 12.692,6.454 12.442,6.534C12.18,6.617 11.933,6.478 11.844,6.18C11.694,5.674 11.468,5.207 11.153,4.786C11.019,4.608 10.865,4.445 10.725,4.271C10.607,4.123 10.597,3.955 10.678,3.789C10.758,3.627 10.897,3.545 11.079,3.54Z"
    />
    <path
      d="M3.802,3.537C4.061,3.545 4.202,3.632 4.28,3.801C4.358,3.97 4.339,4.135 4.221,4.282C4.032,4.52 3.83,4.749 3.656,4.997C3.407,5.352 3.239,5.75 3.114,6.165C3.033,6.434 2.85,6.575 2.624,6.555C2.324,6.528 2.142,6.26 2.225,5.961C2.44,5.185 2.822,4.498 3.349,3.891C3.408,3.822 3.461,3.745 3.533,3.693C3.632,3.621 3.746,3.569 3.802,3.537Z"
    />
    <path
      d="M7.474,12.995C7.044,12.929 6.621,12.873 6.203,12.795C5.909,12.739 5.764,12.51 5.82,12.246C5.874,11.991 6.121,11.84 6.403,11.909C7.118,12.085 7.83,12.086 8.546,11.91C8.83,11.84 9.077,11.988 9.132,12.241C9.191,12.506 9.046,12.738 8.754,12.793C8.331,12.873 7.903,12.929 7.474,12.995Z"
    />
  </g>
</svg>
