<svg
  xmlns="http://www.w3.org/2000/svg"
  width="24"
  height="24"
  viewBox="0 0 512 512"
  fill="#5B6770"
>
  <path d="M239.7,510c-3.5,-0.9 -7,-2 -10.6,-2.8c-60.6,-13.1 -102.1,-67.4 -99.8,-130.6c2.2,-58.8 48.9,-110.3 108.5,-118.3c77.5,-10.4 133.8,45.7 143.3,106.5c10.3,66 -36.7,135.6 -110.3,144.3c-0.5,0.1 -1,0.6 -1.5,0.9c-1.3,0 -2.6,0 -3.9,0c-1.3,-0.3 -2.6,-0.6 -3.8,-0.9c-4.7,0 -9.3,0 -14,-0.1c-1,0.3 -1.9,0.6 -2.9,0.9C243,510 241.4,510 239.7,510zM243.3,396.1c0,17.2 0,33.9 0,50.3c8.7,0 16.8,0 25.3,0c0,-16.9 0,-33.5 0,-50.4c16.9,0 33.4,0 50.2,0c0,-8.5 0,-16.7 0,-25.3c-16.8,0 -33.5,0 -50.5,0c0,-17 0,-33.6 0,-50.1c-8.5,0 -16.6,0 -25.2,0c0,16.8 0,33.3 0,50.4c-17,0 -33.7,0 -50.2,0c0,8.6 0,16.7 0,25.1C209.5,396.1 225.9,396.1 243.3,396.1z" />
  <path d="M247.5,509.1c4.7,0 9.3,0 14,0.1c0,0.3 -0.1,0.6 -0.1,0.9c-4.6,0 -9.2,0 -13.8,0C247.6,509.7 247.6,509.4 247.5,509.1z" />
  <path d="M261.4,510c0,-0.3 0.1,-0.6 0.1,-0.9c1.3,0.3 2.6,0.6 3.8,0.9C264.1,510 262.7,510 261.4,510z" />
  <path d="M247.5,509.1c0.1,0.3 0.1,0.6 0.1,0.9c-1,0 -2,0 -3,0C245.6,509.7 246.6,509.4 247.5,509.1z" />
  <path d="M390.8,415c7.1,-29.7 4.3,-58.2 -7.5,-85.7c-12.5,-29.3 -32.9,-51.6 -60.6,-67.1c-2.9,-1.6 -4.1,-3.3 -4.2,-6.7c-0.9,-32.4 -26.8,-59.2 -58.9,-61c-33.2,-1.9 -61.5,21 -66.4,53.8c-0.6,3.9 -0.8,7.8 -1.1,11.3c-59.1,35.6 -83.1,87.1 -72,155.5c-13.5,5.5 -27.1,11.4 -41.1,16.7c-7.7,2.9 -14.6,-0.6 -19.3,-8.6c-13.1,-22.6 -26.1,-45.2 -39.1,-67.7c-2.1,-3.7 -4.3,-7.4 -6.4,-11.1c-5.3,-9.4 -3.8,-16.8 5.1,-23.6c26.1,-20.2 52.3,-40.3 78.5,-60.4c22.1,-17 44.3,-34 66.3,-51.2c1.8,-1.4 3.4,-4 3.7,-6.2c6.1,-44.2 11.9,-88.5 17.8,-132.8c2.3,-16.9 4.5,-33.8 6.8,-50.8c1.2,-8.6 7.4,-14.3 16.1,-14.3c31.4,-0.1 62.8,-0.1 94.2,0c8.4,0 14.8,5.6 15.9,13.9c4.7,35 9.3,70 14,105c3.6,26.7 7.1,53.4 10.9,80c0.3,2 2.3,4.2 4,5.5c47.6,36.8 95.2,73.4 142.8,110.1c11.2,8.6 12.4,14.6 5.2,26.9c-14.4,25 -28.8,50 -43.3,75c-6.4,11.1 -13,13.4 -25,8.5C415.2,425.1 403.2,420.2 390.8,415z" />
  <path d="M12.6,190.4c1.2,-4 2.6,-9.9 4.6,-15.5c12,-34.8 30.8,-65.4 56.3,-91.8c6.4,-6.7 16.1,-7.1 22.5,-1.2c6.4,5.9 7,-15.7 0.6,22.5c-18.1,19.3 -33.2,40.6 -43.4,65.1c-3.4,8.1 -5.7,16.7 -9.1,24.8c-1.8,4.2 -4.4,8.5 -7.8,11.4c-4.6,3.8 -10.5,3.5 -15.8,0.5C15.2,203.1 12.6,198.4 12.6,190.4z" />
  <path d="M426.3,76.7c3.6,2 8,3.3 10.7,6.1c29,29.8 49.3,64.8 60.7,104.8c2.4,8.5 -1.7,16.8 -9.6,19.7c-8.2,3 -16.6,-0.7 -20,-9.3c-4.4,-10.9 -7.8,-22.2 -12.5,-33c-8.8,-20.3 -21.2,-38.4 -36.1,-54.8c-2.2,-2.4 -4.5,-4.8 -6.5,-7.4c-3.9,-5.2 -4.3,-11 -1.4,-16.7C414.6,80.5 419.5,77.8 426.3,76.7z" />
  <path d="M130.5,120.2c6.9,1.3 11.7,4.2 14.4,9.8c2.9,6 2.1,11.8 -2.1,17.1c-6.5,8.2 -13.5,16.1 -19.5,24.7c-8.6,12.3 -14.4,26 -18.7,40.4c-3,9.9 -9.7,14.5 -18.5,13c-9,-1.6 -14.9,-10.1 -12.5,-19c8.2,-30.8 23.9,-57.4 46.1,-80.2C122.4,123.2 126.9,122.1 130.5,120.2z" />
  <path d="M380.2,121.2c5.1,0 9.1,2.3 12.5,5.9c20.6,21.9 35.4,47.1 44,75.9c3,10 -1,19 -9.6,21.7c-9.1,2.8 -17.5,-2 -20.6,-12.4c-5.2,-17.3 -12.9,-33.3 -23.7,-47.8c-4.5,-6 -9.7,-11.6 -14.5,-17.4c-4.3,-5.2 -5.1,-11 -2.3,-17.1C368.8,124.3 373.7,121.4 380.2,121.2z" />
</svg>
