<svg xmlns="http://www.w3.org/2000/svg" height="21" width="21" viewBox="0 0 12 12">
  <path fill="#5B6770" d="M10.168,6.631C10.168,7.781 10.171,8.93 10.168,10.08C10.165,10.99 9.573,11.693 8.677,11.856C8.573,11.875 8.466,11.876 8.36,11.877C6.808,11.878 5.257,11.879 3.706,11.877C2.787,11.876 2.08,11.284 1.917,10.384C1.898,10.276 1.897,10.163 1.897,10.053C1.896,7.73 1.896,5.408 1.897,3.086C1.897,2.65 2.128,2.42 2.563,2.42C4.876,2.42 7.189,2.42 9.502,2.42C9.937,2.42 10.168,2.65 10.169,3.085C10.169,4.267 10.168,5.449 10.168,6.631ZM3.074,3.611C3.074,3.67 3.074,3.716 3.074,3.761C3.074,5.844 3.074,7.928 3.074,10.011C3.074,10.468 3.307,10.7 3.765,10.7C5.275,10.7 6.786,10.7 8.296,10.7C8.762,10.7 8.991,10.47 8.991,10C8.991,7.921 8.991,5.843 8.991,3.764C8.991,3.715 8.991,3.666 8.991,3.611C7.014,3.611 5.052,3.611 3.074,3.611Z"/>
  <path fill="#5B6770" d="M4.977,0.061C5.671,0.06 6.366,0.06 7.06,0.059C7.431,0.091 7.728,0.258 7.943,0.562C7.988,0.627 8.034,0.649 8.111,0.648C8.799,0.646 9.487,0.645 10.175,0.648C10.437,0.649 10.664,0.823 10.737,1.064C10.809,1.304 10.73,1.583 10.513,1.71C10.389,1.783 10.229,1.826 10.084,1.827C7.571,1.833 5.059,1.831 2.546,1.831C2.343,1.831 2.14,1.833 1.937,1.831C1.571,1.827 1.303,1.577 1.3,1.241C1.298,0.898 1.568,0.647 1.944,0.647C2.614,0.646 3.284,0.646 3.954,0.649C4.031,0.649 4.077,0.627 4.122,0.562C4.33,0.266 4.618,0.1 4.977,0.061Z"/>
</svg>
